<svg width="20" height="20" viewBox="0 0 20 20" fill="none" xmlns="http://www.w3.org/2000/svg">
<path d="M8.33335 4.16667H11.6667C11.6667 3.72464 11.4911 3.30072 11.1785 2.98816C10.866 2.67559 10.442 2.5 10 2.5C9.55799 2.5 9.13407 2.67559 8.82151 2.98816C8.50895 3.30072 8.33335 3.72464 8.33335 4.16667V4.16667ZM7.08335 4.16667C7.08335 3.78364 7.1588 3.40437 7.30537 3.05051C7.45195 2.69664 7.66679 2.37511 7.93763 2.10427C8.20846 1.83343 8.52999 1.61859 8.88386 1.47202C9.23773 1.32544 9.617 1.25 10 1.25C10.383 1.25 10.7623 1.32544 11.1162 1.47202C11.47 1.61859 11.7916 1.83343 12.0624 2.10427C12.3333 2.37511 12.5481 2.69664 12.6947 3.05051C12.8412 3.40437 12.9167 3.78364 12.9167 4.16667H17.7084C17.8741 4.16667 18.0331 4.23251 18.1503 4.34972C18.2675 4.46694 18.3334 4.62591 18.3334 4.79167C18.3334 4.95743 18.2675 5.1164 18.1503 5.23361C18.0331 5.35082 17.8741 5.41667 17.7084 5.41667H16.6084L15.6334 15.5092C15.5586 16.2825 15.1984 17.0002 14.6231 17.5224C14.0478 18.0445 13.2986 18.3336 12.5217 18.3333H7.47835C6.70157 18.3334 5.9526 18.0442 5.37748 17.5221C4.80235 16.9999 4.4423 16.2823 4.36752 15.5092L3.39169 5.41667H2.29169C2.12593 5.41667 1.96696 5.35082 1.84975 5.23361C1.73253 5.1164 1.66669 4.95743 1.66669 4.79167C1.66669 4.62591 1.73253 4.46694 1.84975 4.34972C1.96696 4.23251 2.12593 4.16667 2.29169 4.16667H7.08335ZM8.75002 8.125C8.75002 7.95924 8.68417 7.80027 8.56696 7.68306C8.44975 7.56585 8.29078 7.5 8.12502 7.5C7.95926 7.5 7.80029 7.56585 7.68308 7.68306C7.56587 7.80027 7.50002 7.95924 7.50002 8.125V14.375C7.50002 14.5408 7.56587 14.6997 7.68308 14.8169C7.80029 14.9342 7.95926 15 8.12502 15C8.29078 15 8.44975 14.9342 8.56696 14.8169C8.68417 14.6997 8.75002 14.5408 8.75002 14.375V8.125ZM11.875 7.5C12.0408 7.5 12.1998 7.56585 12.317 7.68306C12.4342 7.80027 12.5 7.95924 12.5 8.125V14.375C12.5 14.5408 12.4342 14.6997 12.317 14.8169C12.1998 14.9342 12.0408 15 11.875 15C11.7093 15 11.5503 14.9342 11.4331 14.8169C11.3159 14.6997 11.25 14.5408 11.25 14.375V8.125C11.25 7.95924 11.3159 7.80027 11.4331 7.68306C11.5503 7.56585 11.7093 7.5 11.875 7.5ZM5.61169 15.3892C5.65663 15.853 5.87272 16.2835 6.21783 16.5968C6.56293 16.91 7.01231 17.0834 7.47835 17.0833H12.5217C12.9877 17.0834 13.4371 16.91 13.7822 16.5968C14.1273 16.2835 14.3434 15.853 14.3884 15.3892L15.3534 5.41667H4.64669L5.61169 15.3892Z" fill="white"/>
</svg>
