<svg width="1000" height="1000" viewBox="0 0 1000 1000" fill="none" xmlns="http://www.w3.org/2000/svg">
<path d="M303.44 308.999C303.44 308.999 397.44 152.489 585.34 213.739C772.94 274.999 728.61 507.549 728.49 508.159C729.31 503.899 761.81 499.839 765.25 499.339C861.12 485.169 932.43 574.339 939.5 662.219C948.28 771.219 863.97 848.419 767.95 881.659" stroke="#CCDDE2" stroke-width="5.5" stroke-miterlimit="10"/>
<path d="M755.57 932.799C752.73 942.789 750.67 948.499 750.67 948.499H749.19C751.53 943.406 753.657 938.172 755.57 932.799Z" fill="#202020"/>
<path d="M494 538.512C494 538.512 490.62 559.032 487.12 577.612C477.12 577.722 467.12 577.802 457.23 577.882C452.23 549.742 457.66 527.702 464.11 513.012C472.24 531.552 484.52 537.192 494 538.512Z" fill="#FA4A0C"/>
<path d="M658.36 612.552C638.027 601.604 616.355 593.351 593.89 588.002L586.53 586.732C586.53 586.732 581.05 574.272 581.02 574.232C578.45 567.702 574.19 559.032 572.87 552.152C571.262 544.025 570.871 535.704 571.71 527.462C573.15 515.222 578.85 489.332 589.15 481.172C597.74 474.412 601.28 475.832 606.15 465.262C609.65 457.722 611.07 445.052 604.27 439.492C596.73 433.392 593.51 436.492 584.49 437.432C550.21 440.832 530.62 416.162 518.02 387.652C516.02 383.022 513.94 378.132 510.67 374.192C506.92 369.652 501.73 368.632 497.48 364.962C495.67 363.382 494.43 360.802 495.3 358.562C495.813 357.491 496.558 356.548 497.48 355.802C505.512 348.403 515.157 342.976 525.65 339.952C542.248 335.153 559.786 334.606 576.65 338.362C594.25 344.192 610.07 355.232 620.72 372.102C635.41 395.412 638.95 419.592 630.72 443.692C622.29 468.372 612.88 497.362 628.72 521.112C649.81 552.662 662.52 574.852 658.36 612.552Z" fill="#FA4A0C"/>
<path d="M487.16 577.609C477.16 577.719 467.16 577.799 457.27 577.879C381.91 578.269 309.78 577.219 234.18 590.779" stroke="#202020" stroke-width="5.5" stroke-miterlimit="10"/>
<path d="M585.34 586C588.21 586.63 591.05 587.29 593.89 588C604.961 590.676 615.86 594.015 626.53 598C637.477 602.073 648.114 606.932 658.36 612.54C658.371 612.53 658.385 612.525 658.4 612.525C658.415 612.525 658.429 612.53 658.44 612.54C674.559 621.274 689.458 632.094 702.75 644.72C713.864 655.549 723.473 667.822 731.32 681.21C731.388 681.261 731.44 681.33 731.47 681.41C737.835 692.096 743.362 703.259 748 714.8C761.84 748.89 769.69 788.14 770.89 827.2C771.98 864.09 767.12 900.82 755.62 932.8C753.707 938.173 751.58 943.407 749.24 948.5C749.09 948.89 748.89 949.24 748.74 949.63" stroke="#202020" stroke-width="5.5" stroke-miterlimit="10"/>
<path d="M628.79 949.13C628.79 949.13 628.79 949.05 628.79 949.01C628.854 948.844 628.904 948.674 628.94 948.5" stroke="#202020" stroke-width="5.5" stroke-miterlimit="10"/>
<path d="M602.4 724.25C602.4 724.25 624.16 734.82 638.46 767.82C645.65 784.41 650.98 806.72 650.67 836.22C650.67 836.22 650.67 836.22 650.67 836.3C650.51 855.11 648.03 876.83 642.27 901.86V902" stroke="#202020" stroke-width="5.5" stroke-miterlimit="10"/>
<path d="M190.59 305.311C194.43 290.781 200.59 275.801 205.22 269.501C212.5 259.701 222 250.361 234.22 251.201C242.07 251.711 249.78 256.051 250.13 264.651C250.46 273.981 240.62 284.341 237.46 293.111C234.46 301.571 233.09 311.421 234.67 320.321C236.25 329.221 244.24 336.171 252.86 338.081C256.13 338.942 259.607 338.471 262.53 336.771C270.97 331.431 269.2 317.211 268.86 308.821C268.46 299.411 268.47 288.771 276.5 282.331C282.4 277.601 291.35 280.741 295.7 285.941C303.26 294.941 303.63 308.491 304.01 319.571C305.14 352.951 299.21 384.951 279.77 413.051C269.77 427.561 259.47 440.581 255.42 458.381C242.82 513.701 241.42 552.051 234.18 608.231" stroke="#202020" stroke-width="5.5" stroke-miterlimit="10"/>
<path d="M386.82 950C348.18 840.18 366.48 720.2 366.48 720.2L158.92 726.78C150.083 727.06 141.288 725.442 133.129 722.036C124.97 718.63 117.636 713.514 111.62 707.035C105.605 700.555 101.048 692.861 98.2568 684.472C95.4658 676.082 94.5053 667.192 95.44 658.4L146.28 473L157.28 433.45C160.788 421.005 159.984 407.74 155 395.81L149.82 383.45C149.82 383.45 140.43 364.3 161.48 366.1C172.8 367.1 184.03 371.91 193.53 377.95C200.99 382.7 212.37 391.89 208.85 402.08C204.69 414.08 188.38 417.08 178.8 410.33" stroke="#202020" stroke-width="5.5" stroke-miterlimit="10"/>
<path d="M154.48 366.001C154.48 366.001 136.7 326.001 185.48 336.351C234.26 346.701 245.94 400.001 208.71 394.001" stroke="#202020" stroke-width="5.5" stroke-miterlimit="10"/>
<path d="M170.56 334.06C170.56 334.06 154.96 315.11 178.28 306.06C201.6 297.01 286.28 339.75 231.96 381.85" stroke="#202020" stroke-width="5.5" stroke-miterlimit="10"/>
<path d="M508 537.609C503.473 538.851 498.74 539.158 494.09 538.509C484.57 537.189 472.29 531.509 464.2 513.009C462.52 509.228 461.155 505.315 460.12 501.309C456 485.999 454.2 464.699 456.61 434.999C457.08 429.289 457.78 423.489 458.75 417.699C460.356 407.627 462.945 397.736 466.48 388.169C466.48 388.169 466.48 388.089 466.56 388.049C475.38 364.729 490.89 345.049 516.97 337.479C536.528 331.837 557.322 332.137 576.71 338.339C594.31 344.169 610.13 355.209 620.78 372.079C635.47 395.389 639.01 419.569 630.78 443.669C622.35 468.349 612.94 497.339 628.78 521.089C649.84 552.689 662.55 574.879 658.47 612.579" stroke="#202020" stroke-width="5.5" stroke-miterlimit="10"/>
<path d="M449.27 579.049C441.61 542.319 451.95 515.539 460.07 501.309" stroke="#202020" stroke-width="5.5" stroke-miterlimit="10"/>
<path d="M458.75 417.66C458.75 417.66 475.52 400.13 494.95 427.82" stroke="#202020" stroke-width="5.5" stroke-miterlimit="10"/>
<path d="M501.45 505.928C508.54 510.518 518.14 507.668 523.36 500.598C529.03 492.928 531.3 482.688 532.53 473.398C532.61 472.728 532.7 472.068 532.76 471.398C524.11 484.988 507.32 488.248 492.54 489.668C493.1 494.113 494.753 498.349 497.35 501.998C498.462 503.551 499.852 504.883 501.45 505.928Z" stroke="#202020" stroke-width="5.5" stroke-linecap="round" stroke-linejoin="round"/>
<path d="M578.46 567.11L578.42 567.07" stroke="#202020" stroke-width="5.5" stroke-miterlimit="10"/>
<path d="M512.49 412.269C512.49 412.269 518.19 403.039 537.67 409.839C557.15 416.639 557.38 427.749 557.38 427.749" stroke="#202020" stroke-width="5.5" stroke-miterlimit="10"/>
<path d="M468.21 435.221C468.21 435.221 477.21 430.671 484.26 435.221" stroke="#202020" stroke-width="5.5" stroke-miterlimit="10"/>
<path d="M516.71 439.409C516.71 439.409 525.71 434.859 532.71 439.409" stroke="#202020" stroke-width="5.5" stroke-miterlimit="10"/>
<path d="M494 538.511C494 538.511 490.62 559.031 487.12 577.611C486.61 580.251 486.12 582.851 485.68 585.421C483.39 597.931 481.56 609.051 481.48 612.421C480.9 640.421 507.37 656.571 532.94 656.301C568.82 655.911 589.8 622.531 586.42 589.101C584.21 583.001 581.95 576.901 579.74 570.801C576.9 562.981 573.21 555.371 571.61 547.131C570.197 539.013 570.042 530.726 571.15 522.561C572.59 510.361 574.96 492.171 585.26 484.011C593.85 477.251 602.82 472.811 607.72 462.241C611.22 454.701 611.06 444.991 604.26 439.431C596.72 433.331 584.79 434.071 575.77 434.961C517.59 440.911 507.91 382.021 492.17 373.751C479.27 366.941 469.59 382.221 466.56 387.891L466.44 388.131C466.435 388.188 466.41 388.241 466.37 388.281C465.82 389.281 465.55 389.951 465.55 389.951" stroke="#202020" stroke-width="5.5" stroke-miterlimit="10"/>
<path d="M492.51 442C492.51 442 486.43 461.9 486.9 464.88C487.37 467.86 494.46 465.78 494.46 465.78" stroke="#202020" stroke-width="5.5" stroke-miterlimit="10"/>
<path d="M540.153 463.001C549.468 453.703 549.297 438.43 539.773 428.889C530.249 419.348 514.977 419.151 505.663 428.45C496.348 437.748 496.519 453.02 506.043 462.561C515.567 472.102 530.839 472.299 540.153 463.001Z" stroke="#202020" stroke-width="5.5" stroke-miterlimit="10"/>
<path d="M479.367 455.614C488.681 446.316 488.511 431.044 478.987 421.503C469.462 411.962 454.191 411.765 444.876 421.063C435.562 430.361 435.732 445.633 445.257 455.174C454.781 464.715 470.053 464.912 479.367 455.614Z" stroke="#202020" stroke-width="5.5" stroke-miterlimit="10"/>
<path d="M461.59 419.811C464.245 419.799 466.873 420.343 469.305 421.409C471.736 422.475 473.918 424.039 475.708 426C477.498 427.96 478.857 430.275 479.698 432.793C480.539 435.311 480.843 437.978 480.59 440.621C480.168 445.065 478.1 449.191 474.792 452.189C471.484 455.186 467.174 456.838 462.71 456.821C460.055 456.833 457.427 456.288 454.995 455.222C452.564 454.157 450.382 452.593 448.592 450.632C446.802 448.671 445.443 446.357 444.602 443.839C443.761 441.32 443.457 438.654 443.71 436.011C444.132 431.567 446.2 427.441 449.508 424.443C452.816 421.446 457.126 419.793 461.59 419.811ZM461.59 417.051C456.446 417.038 451.482 418.948 447.673 422.405C443.864 425.863 441.484 430.619 441 435.741C440.485 441.394 442.188 447.026 445.751 451.445C449.314 455.865 454.456 458.725 460.09 459.421C460.953 459.524 461.821 459.577 462.69 459.581C467.84 459.601 472.811 457.695 476.626 454.236C480.442 450.778 482.826 446.018 483.31 440.891C483.825 435.238 482.122 429.606 478.559 425.186C474.996 420.767 469.854 417.907 464.22 417.211C463.357 417.108 462.489 417.055 461.62 417.051H461.59Z" fill="white"/>
<path d="M498.89 442.788L486.13 441.238" stroke="#202020" stroke-width="5.5" stroke-miterlimit="10"/>
<path d="M538.197 461.042C546.456 452.797 546.306 439.257 537.862 430.799C529.419 422.34 515.879 422.167 507.62 430.412C499.361 438.656 499.51 452.197 507.954 460.655C516.398 469.113 529.938 469.287 538.197 461.042Z" fill="#FA4A0C"/>
<path d="M477.417 453.658C485.68 445.41 485.531 431.863 477.083 423.401C468.636 414.939 455.089 414.766 446.826 423.014C438.563 431.263 438.713 444.809 447.16 453.271C455.608 461.734 469.154 461.907 477.417 453.658Z" fill="#FA4A0C"/>
<path d="M267.14 106.161C238.14 107.641 214.14 130.881 211.83 159.801C211.141 167.87 212.14 175.994 214.764 183.656C217.388 191.317 221.579 198.348 227.07 204.301C231.119 208.755 235.843 212.545 241.07 215.531C242.434 216.318 243.722 217.228 244.92 218.251C252.746 222.202 261.388 224.267 270.155 224.281C278.923 224.295 287.571 222.257 295.41 218.331C296.55 217.272 297.816 216.359 299.18 215.611C304.621 212.5 309.538 208.551 313.75 203.911C313.857 203.76 313.974 203.616 314.1 203.481C321.741 194.832 326.658 184.12 328.234 172.688C329.811 161.257 327.977 149.614 322.963 139.22C317.949 128.826 309.977 120.144 300.048 114.263C290.119 108.382 278.675 105.563 267.15 106.161H267.14ZM303.44 197.771C303.329 197.854 303.238 197.96 303.17 198.081C299.906 201.65 296.103 204.687 291.9 207.081C290.854 207.654 289.886 208.36 289.02 209.181C282.976 212.206 276.309 213.781 269.55 213.781C262.791 213.781 256.124 212.206 250.08 209.181C249.144 208.382 248.14 207.666 247.08 207.041C239.003 202.395 232.561 195.365 228.637 186.913C224.714 178.462 223.501 169.004 225.166 159.836C226.83 150.668 231.291 142.24 237.935 135.707C244.579 129.175 253.081 124.857 262.276 123.348C271.47 121.839 280.907 123.211 289.291 127.277C297.675 131.343 304.595 137.903 309.103 146.057C313.611 154.212 315.486 163.561 314.47 172.824C313.455 182.086 309.598 190.807 303.43 197.791L303.44 197.771Z" fill="#FA4A0C"/>
<path d="M295.39 218.34C293.088 220.428 291.251 222.977 289.997 225.822C288.743 228.666 288.1 231.741 288.11 234.85V237.53C288.11 246.89 281.33 255.28 272.11 256.22C269.618 256.475 267.101 256.206 264.719 255.43C262.338 254.653 260.146 253.387 258.283 251.712C256.421 250.037 254.93 247.991 253.907 245.705C252.883 243.419 252.349 240.944 252.34 238.44V234.85C252.335 231.724 251.675 228.634 250.404 225.779C249.133 222.923 247.279 220.365 244.96 218.27C252.786 222.209 261.425 224.267 270.187 224.279C278.949 224.291 287.593 222.257 295.43 218.34H295.39Z" fill="#202020"/>
<path d="M295.39 218.34C293.088 220.428 291.251 222.977 289.997 225.822C288.743 228.666 288.1 231.741 288.11 234.85V237.53C288.11 246.89 281.33 255.28 272.11 256.22C269.618 256.475 267.101 256.206 264.719 255.43C262.338 254.653 260.146 253.387 258.283 251.712C256.421 250.037 254.93 247.991 253.907 245.705C252.883 243.419 252.349 240.944 252.34 238.44V234.85C252.335 231.724 251.675 228.634 250.404 225.779C249.133 222.923 247.279 220.365 244.96 218.27C252.786 222.209 261.425 224.267 270.187 224.279C278.949 224.291 287.593 222.257 295.43 218.34H295.39Z" stroke="#202020" stroke-width="5.5" stroke-miterlimit="10"/>
<path d="M328.78 164.672C328.81 178.98 323.578 192.8 314.08 203.502C313.961 203.631 313.851 203.768 313.75 203.912C309.531 208.56 304.603 212.512 299.15 215.622C297.795 216.379 296.534 217.292 295.39 218.342C287.553 222.26 278.909 224.293 270.147 224.281C261.385 224.269 252.747 222.211 244.92 218.272C243.725 217.233 242.432 216.312 241.06 215.522C231.401 209.969 223.523 201.781 218.347 191.916C213.17 182.05 210.91 170.915 211.83 159.812C213.048 144.722 220.061 130.691 231.398 120.659C242.736 110.627 257.517 105.375 272.642 106.004C287.767 106.632 302.062 113.093 312.528 124.03C322.994 134.968 328.818 149.533 328.78 164.672Z" stroke="#202020" stroke-width="5.5" stroke-miterlimit="10"/>
<path d="M253.65 224.282L240.23 179.802L236.87 167.202C236.87 166.823 236.995 166.455 237.225 166.154C237.456 165.854 237.779 165.638 238.145 165.54C238.511 165.442 238.899 165.467 239.249 165.612C239.599 165.757 239.891 166.014 240.08 166.342C243.08 171.642 247.82 178.292 252.54 178.122C260.37 177.842 253.94 154.072 247.54 156.562C241.14 159.052 253.41 174.762 266.05 176.722C278.69 178.682 275.23 157.432 266.05 156.592C256.87 155.752 263.2 173.652 279.7 176.722C296.2 179.792 293.12 161.622 288.65 157.992C284.18 154.362 285.57 175.322 295.93 178.682C299.21 179.752 301.82 177.462 303.1 174.612C303.84 172.952 303.46 164.552 301.94 167.142C298.84 172.452 298.23 179.082 296.71 184.942C293.48 197.342 288.54 209.212 285.71 221.722" stroke="#202020" stroke-width="5.5" stroke-miterlimit="10"/>
<path d="M165.45 949.999C172.53 946.679 825.45 949.999 825.45 949.999" stroke="#202020" stroke-width="5.5" stroke-miterlimit="10"/>
<path d="M270.16 85.23L269.58 50" stroke="#202020" stroke-width="7.34" stroke-miterlimit="10"/>
<path d="M202.97 118L178.58 92.5703" stroke="#202020" stroke-width="7.34" stroke-miterlimit="10"/>
<path d="M337.6 119.58L362.53 94.6797" stroke="#202020" stroke-width="7.34" stroke-miterlimit="10"/>
<path d="M711.34 901.939L712.19 902.019C711.73 902.099 711.19 902.179 710.72 902.289H710L642.29 901.939H634.64L520.88 901.359C520.45 901.359 520.02 901.359 519.59 901.359C519.488 901.378 519.383 901.378 519.28 901.359C519.28 901.359 519.28 901.359 519.21 901.359C518.494 901.366 517.778 901.315 517.07 901.209C523.154 900.521 528.92 898.125 533.7 894.299C534.45 893.669 535.22 893.069 535.92 892.389L536 892.309C536.163 892.177 536.317 892.033 536.46 891.879C542.242 886.161 545.704 878.507 546.18 870.389C546.18 869.999 546.18 869.569 546.18 869.179V868.559C546.145 860.981 543.503 853.645 538.697 847.785C533.892 841.925 527.215 837.897 519.79 836.379C519.779 836.369 519.765 836.364 519.75 836.364C519.735 836.364 519.721 836.369 519.71 836.379C518.97 836.189 518.12 836.069 517.34 835.949L519.01 835.839C519.283 835.819 519.557 835.819 519.83 835.839C520.29 835.839 520.72 835.839 521.15 835.839L617.26 836.339L634.95 836.419L650.65 836.499H657.96H658.85C658.97 836.499 659.04 836.499 659.16 836.499C667.266 837.316 674.781 841.109 680.252 847.146C685.723 853.182 688.762 861.033 688.78 869.179C688.779 870.729 688.662 872.277 688.43 873.809C687.296 881.422 683.532 888.398 677.79 893.524C672.048 898.65 664.692 901.603 657 901.869C656.65 901.869 656.3 901.869 656 901.869H713.1C712.27 901.899 711.73 901.899 711.34 901.939Z" fill="white"/>
<path d="M558.43 941.682C560.59 943.853 563.158 945.576 565.986 946.75C568.815 947.924 571.848 948.526 574.91 948.522H519.13C508.45 948.522 502.65 945.922 498.42 941.682C494.05 937.309 491.591 931.384 491.58 925.202C491.58 912.422 502.07 901.922 519.13 901.922H574.91C570.3 901.915 565.792 903.276 561.957 905.833C558.122 908.391 555.132 912.03 553.367 916.288C551.602 920.546 551.141 925.233 552.042 929.754C552.944 934.275 555.167 938.426 558.43 941.682Z" fill="#D7E8F0"/>
<path d="M711.57 902.014C711.613 902.002 711.658 902.005 711.7 902.021C711.657 902.019 711.613 902.017 711.57 902.014C711.418 902.003 711.268 901.978 711.12 901.94H657C664.037 901.564 670.766 898.93 676.19 894.43C677.007 893.763 677.789 893.052 678.53 892.3C679.149 891.698 679.734 891.06 680.28 890.391C680.698 889.926 681.085 889.435 681.44 888.92C681.67 888.64 681.87 888.37 682.06 888.1C682.43 887.605 682.764 887.084 683.06 886.54C683.515 885.906 683.919 885.238 684.27 884.54C684.643 883.874 684.977 883.186 685.27 882.48C685.42 882.17 685.54 881.82 685.74 881.48C686.01 880.781 686.24 880.081 686.47 879.381C686.79 878.381 687.1 877.321 687.33 876.281C687.47 875.718 687.573 875.147 687.64 874.57C687.685 874.431 687.712 874.287 687.72 874.141C687.764 874.029 687.791 873.911 687.8 873.79C687.8 873.4 687.91 873.05 687.95 872.66V872.43C688.096 871.347 688.163 870.254 688.15 869.16C688.163 868.656 688.137 868.151 688.07 867.651V867.3C688.07 866.805 688.03 866.31 687.95 865.82C687.686 863.122 687.071 860.47 686.12 857.93C685.594 856.407 684.924 854.937 684.12 853.54C683.386 852.134 682.53 850.796 681.56 849.54C681.309 849.174 681.035 848.823 680.74 848.49C680.62 848.37 680.51 848.21 680.35 848.06C679.832 847.379 679.26 846.741 678.64 846.151C678.18 845.691 677.64 845.22 677.17 844.72C676.7 844.22 675.92 843.63 675.26 843.16C674.6 842.69 674.17 842.351 673.59 841.961C672.728 841.334 671.819 840.776 670.87 840.29C669.986 839.775 669.064 839.33 668.11 838.961C667.006 838.488 665.878 838.074 664.73 837.72C664.339 837.575 663.933 837.471 663.52 837.41C662.45 837.106 661.361 836.872 660.26 836.711C659.71 836.591 659.17 836.55 658.59 836.48H658.51C658.435 836.5 658.355 836.5 658.28 836.48H658.51H658.59C659.17 836.55 659.71 836.591 660.26 836.711C661.361 836.872 662.45 837.106 663.52 837.41C663.933 837.471 664.339 837.575 664.73 837.72C665.878 838.074 667.006 838.488 668.11 838.961C669.064 839.33 669.986 839.775 670.87 840.29C671.819 840.776 672.728 841.334 673.59 841.961C674.17 842.351 674.6 842.69 675.26 843.16C675.92 843.63 676.7 844.22 677.17 844.72C677.64 845.22 678.18 845.691 678.64 846.151C679.26 846.741 679.832 847.379 680.35 848.06C680.51 848.21 680.62 848.37 680.74 848.49C681.035 848.823 681.309 849.174 681.56 849.54C682.53 850.796 683.386 852.134 684.12 853.54C684.924 854.937 685.594 856.407 686.12 857.93C687.071 860.47 687.686 863.122 687.95 865.82C688.03 866.31 688.07 866.805 688.07 867.3V867.651C688.137 868.151 688.163 868.656 688.15 869.16C688.163 870.254 688.096 871.347 687.95 872.43V872.66C687.91 873.05 687.8 873.4 687.8 873.79C687.791 873.911 687.764 874.029 687.72 874.141C687.712 874.287 687.685 874.431 687.64 874.57C687.573 875.147 687.47 875.718 687.33 876.281C687.1 877.321 686.79 878.381 686.47 879.381C686.24 880.081 686.01 880.781 685.74 881.48C685.54 881.82 685.42 882.17 685.27 882.48C684.977 883.186 684.643 883.874 684.27 884.54C683.919 885.238 683.515 885.906 683.06 886.54C682.764 887.084 682.43 887.605 682.06 888.1C681.87 888.37 681.67 888.64 681.44 888.92C681.085 889.435 680.698 889.926 680.28 890.391C679.734 891.06 679.149 891.698 678.53 892.3C677.789 893.052 677.007 893.763 676.19 894.43C670.766 898.93 664.037 901.564 657 901.94H711.12C711.249 901.92 711.381 901.92 711.51 901.94H711.12C711.268 901.978 711.418 902.003 711.57 902.014Z" fill="#FA4A0C"/>
<path d="M742.82 869.652C742.82 870.272 742.82 870.932 742.74 871.552C742.66 872.602 742.55 873.612 742.39 874.622C742.31 875.162 742.2 875.712 742.08 876.252C741.85 877.252 741.58 878.352 741.27 879.362C740.92 880.476 740.502 881.568 740.02 882.632C739.865 883.049 739.671 883.451 739.44 883.832C739.44 883.952 739.36 884.032 739.28 884.142C739.05 884.652 738.78 885.142 738.51 885.622C738.08 886.402 737.61 887.172 737.11 887.912C736.52 888.812 735.86 889.622 735.2 890.442C734.529 891.256 733.815 892.034 733.06 892.772C732.269 893.577 731.427 894.332 730.54 895.032L729.54 895.842C728.403 896.701 727.206 897.48 725.96 898.172C725.38 898.482 724.76 898.802 724.14 899.112C724.082 899.155 724.012 899.179 723.94 899.182C723.24 899.532 722.54 899.812 721.84 900.082C721.14 900.352 720.44 900.622 719.71 900.852C718.97 901.052 718.23 901.282 717.49 901.442L716.88 901.552C716.3 901.682 715.72 901.792 715.13 901.882C714.084 902.062 713.029 902.185 711.97 902.252C711.326 902.319 710.678 902.346 710.03 902.332C710.03 902.332 709.91 902.332 709.87 902.332L642.27 902.002L626.34 901.922L520.16 901.382C519.769 901.375 519.378 901.348 518.99 901.302C518.1 901.302 517.24 901.222 516.35 901.152C524.043 900.235 531.169 896.648 536.489 891.016C541.808 885.384 544.983 878.064 545.46 870.332C545.46 869.942 545.46 869.512 545.46 869.082V868.662C545.47 861.043 542.842 853.656 538.025 847.754C533.207 841.852 526.496 837.799 519.03 836.282C518.25 836.122 517.47 836.012 516.66 835.892C517.434 835.802 518.211 835.752 518.99 835.742C519.263 835.722 519.537 835.722 519.81 835.742H520.47L626.65 836.282L650.65 836.402H658.5H659.16L710.16 836.672C711.834 836.678 713.505 836.809 715.16 837.062C719.385 837.755 723.436 839.259 727.09 841.492C727.56 841.762 727.98 842.072 728.41 842.342C729.706 843.229 730.939 844.205 732.1 845.262C732.49 845.612 732.84 845.962 733.23 846.352C736.193 849.354 738.567 852.885 740.23 856.762L740.82 858.282C741.017 858.775 741.184 859.279 741.32 859.792C742.317 862.983 742.823 866.308 742.82 869.652Z" stroke="#202020" stroke-width="5.5" stroke-linecap="square" stroke-linejoin="round"/>
<path d="M688.1 869.061C688.106 870.153 688.053 871.245 687.94 872.331C687.94 872.411 687.94 872.481 687.94 872.561C687.86 873.071 687.79 873.561 687.71 874.041C687.702 874.187 687.675 874.332 687.63 874.471C687.563 875.047 687.46 875.618 687.32 876.181C687.09 877.181 686.78 878.271 686.46 879.281C686.23 879.981 686 880.681 685.73 881.381C685.53 881.731 685.41 882.081 685.26 882.381C684.967 883.087 684.633 883.775 684.26 884.441C683.909 885.138 683.505 885.807 683.05 886.441C682.754 886.984 682.42 887.506 682.05 888.001C681.86 888.271 681.66 888.541 681.43 888.821C681.075 889.335 680.688 889.826 680.27 890.291C679.724 890.961 679.139 891.599 678.52 892.201C677.776 892.937 676.995 893.634 676.18 894.291C670.768 898.814 664.042 901.473 657 901.871C656.65 901.871 656.3 901.871 656 901.871H520.31C519.07 901.871 517.79 901.801 516.5 901.681C517.337 901.581 518.168 901.438 518.99 901.251C519.055 901.274 519.125 901.274 519.19 901.251H519.26C525.565 899.936 531.348 896.808 535.9 892.251L535.98 892.171C541.768 886.322 545.151 878.514 545.46 870.291C545.46 869.901 545.46 869.471 545.46 869.041V869.001C545.398 860.986 542.42 853.268 537.084 847.287C531.747 841.306 524.416 837.473 516.46 836.501C517.32 836.391 518.17 836.351 519.03 836.311C519.248 836.271 519.472 836.271 519.69 836.311C519.701 836.301 519.715 836.296 519.73 836.296C519.745 836.296 519.759 836.301 519.77 836.311C519.936 836.291 520.104 836.291 520.27 836.311H655.25C656.19 836.311 657.08 836.311 657.98 836.431H658.29C658.365 836.451 658.445 836.451 658.52 836.431H658.68L660.27 836.661C661.371 836.823 662.46 837.056 663.53 837.361C663.92 837.441 664.35 837.551 664.74 837.671C665.888 838.024 667.016 838.438 668.12 838.911C669.05 839.301 669.99 839.771 670.88 840.241C671.82 840.741 672.729 841.299 673.6 841.911C674.18 842.301 674.73 842.681 675.27 843.111C675.81 843.541 676.55 844.111 677.18 844.671C677.81 845.231 678.18 845.671 678.65 846.101C679.24 846.731 679.82 847.351 680.36 848.011C680.52 848.161 680.63 848.321 680.75 848.441L681.57 849.491C682.506 850.769 683.361 852.105 684.13 853.491C684.885 854.913 685.553 856.379 686.13 857.881C687.048 860.43 687.662 863.079 687.96 865.771C687.96 866.281 688.04 866.771 688.08 867.251V867.601C688.1 868.051 688.1 868.561 688.1 869.061Z" stroke="#202020" stroke-width="5.5" stroke-linecap="square" stroke-linejoin="round"/>
<path d="M713.05 948.5H519.11C514.788 948.616 510.477 948.001 506.36 946.68C505.54 946.37 504.77 946.06 504.03 945.68C503.29 945.29 502.63 944.9 501.97 944.51C501.31 944.12 500.73 943.62 500.14 943.15C499.56 942.64 499.02 942.15 498.51 941.63C495.848 938.971 493.875 935.703 492.76 932.11C492.052 929.872 491.698 927.537 491.71 925.19C491.703 924.281 491.756 923.372 491.87 922.47C492.017 921.203 492.289 919.954 492.68 918.74C493.221 916.82 494.062 914.998 495.17 913.34C495.803 912.257 496.558 911.251 497.42 910.34C497.95 909.75 498.51 909.189 499.1 908.66C503.84 904.43 510.72 901.82 519.23 901.82H713.05C712.27 901.82 711.73 901.82 711.34 901.82C711.211 901.8 711.079 901.8 710.95 901.82C710.56 901.82 710.64 901.82 710.83 901.82C710.841 901.83 710.855 901.835 710.87 901.835C710.885 901.835 710.899 901.83 710.91 901.82C710.999 901.838 711.091 901.838 711.18 901.82C711.26 901.82 711.3 901.82 711.38 901.82C710.95 901.9 710.52 901.94 710.09 902.05H710C710 902.05 709.88 902.05 709.84 902.05C704.539 903.104 699.767 905.96 696.331 910.132C692.895 914.304 691.008 919.535 690.99 924.94C691.021 930.639 693.124 936.133 696.907 940.396C700.69 944.659 705.895 947.401 711.55 948.11C710.6 948.47 709.71 948.5 713.05 948.5Z" stroke="#202020" stroke-width="5.5" stroke-linecap="square" stroke-linejoin="round"/>
<path d="M711.49 948.388C710.6 948.468 709.71 948.498 708.81 948.498H574.88C571.824 948.497 568.799 947.891 565.978 946.718C563.157 945.544 560.595 943.825 558.44 941.658C555.779 938.999 553.805 935.732 552.69 932.138C551.999 929.898 551.662 927.563 551.69 925.218C551.701 919.044 554.155 913.124 558.518 908.754C562.88 904.385 568.795 901.92 574.97 901.898H708.81C709.47 901.898 710.17 901.898 710.81 901.978C710.926 901.997 711.044 901.997 711.16 901.978C711.24 901.978 711.28 901.978 711.36 901.978C710.93 902.058 710.5 902.098 710.07 902.208H710C710 902.208 709.88 902.208 709.84 902.208C704.54 903.263 699.767 906.118 696.331 910.29C692.896 914.462 691.009 919.694 690.99 925.098C691.021 930.798 693.124 936.292 696.907 940.555C700.69 944.818 705.895 947.56 711.55 948.268L711.49 948.388Z" stroke="#202020" stroke-width="5.5" stroke-linecap="square" stroke-linejoin="round"/>
<path d="M551.6 925.218C551.6 931.393 554.053 937.314 558.418 941.68C562.784 946.046 568.706 948.498 574.88 948.498H519.11C508.46 948.498 502.63 945.898 498.39 941.658C496.229 939.501 494.516 936.938 493.349 934.117C492.182 931.296 491.584 928.272 491.59 925.218C491.59 912.398 502.05 901.898 519.11 901.898H574.88C568.705 901.92 562.79 904.385 558.428 908.754C554.065 913.124 551.61 919.044 551.6 925.218Z" stroke="#202020" stroke-width="5.5" stroke-linecap="square" stroke-linejoin="round"/>
<path d="M713.05 948.501H708.81C709.71 948.501 710.6 948.501 711.49 948.391C710.6 948.471 709.71 948.501 713.05 948.501Z" stroke="#202020" stroke-width="5.5" stroke-linecap="square" stroke-linejoin="round"/>
<path d="M711.18 901.999C710.41 901.999 709.59 901.879 708.81 901.879H713.05C710.09 901.899 710.44 901.999 711.18 901.999Z" stroke="#202020" stroke-width="5.5" stroke-linecap="square" stroke-linejoin="round"/>
<path opacity="0.54" d="M130 860.781L60.58 682.941C59.7199 679.501 59.6553 675.909 60.391 672.44C61.1267 668.97 62.6434 665.714 64.8258 662.919C67.0083 660.123 69.7991 657.862 72.9863 656.306C76.1736 654.751 79.6734 653.942 83.22 653.941H359C365.191 653.94 371.202 656.023 376.066 659.854C380.929 663.685 384.362 669.042 385.81 675.061L461.81 852.881C462.634 856.313 462.669 859.887 461.913 863.334C461.157 866.781 459.628 870.011 457.443 872.783C455.258 875.554 452.473 877.793 449.298 879.333C446.122 880.873 442.639 881.672 439.11 881.671H156.73C150.583 881.671 144.612 879.614 139.768 875.829C134.925 872.043 131.486 866.747 130 860.781Z" fill="white"/>
<path d="M130 860.781L60.58 682.941C59.7199 679.501 59.6553 675.909 60.391 672.44C61.1267 668.97 62.6434 665.714 64.8258 662.919C67.0083 660.123 69.7991 657.862 72.9863 656.306C76.1736 654.751 79.6734 653.942 83.22 653.941H359C365.191 653.94 371.202 656.023 376.066 659.854C380.929 663.685 384.362 669.042 385.81 675.061L461.81 852.881C462.634 856.313 462.669 859.887 461.913 863.334C461.157 866.781 459.628 870.011 457.443 872.783C455.258 875.554 452.473 877.793 449.298 879.333C446.122 880.873 442.639 881.672 439.11 881.671H156.73C150.583 881.671 144.612 879.614 139.768 875.829C134.925 872.043 131.486 866.747 130 860.781Z" fill="#FA4A0C"/>
<path d="M130 860.781L60.58 682.941C59.7199 679.501 59.6553 675.909 60.391 672.44C61.1267 668.97 62.6434 665.714 64.8258 662.919C67.0083 660.123 69.7991 657.862 72.9863 656.306C76.1736 654.751 79.6734 653.942 83.22 653.941H359C365.191 653.94 371.202 656.023 376.066 659.854C380.929 663.685 384.362 669.042 385.81 675.061L461.81 852.881C462.634 856.313 462.669 859.887 461.913 863.334C461.157 866.781 459.628 870.011 457.443 872.783C455.258 875.554 452.473 877.793 449.298 879.333C446.122 880.873 442.639 881.672 439.11 881.671H156.73C150.583 881.671 144.612 879.614 139.768 875.829C134.925 872.043 131.486 866.747 130 860.781Z" stroke="#202020" stroke-width="5.5" stroke-linecap="square" stroke-linejoin="round"/>
<path d="M140.14 853.58L76.14 689.51C75.3456 686.338 75.2843 683.026 75.9609 679.826C76.6374 676.626 78.0341 673.623 80.0447 671.043C82.0554 668.464 84.6273 666.377 87.5651 664.94C90.5029 663.503 93.7296 662.754 97 662.75H351.38C357.092 662.751 362.637 664.674 367.123 668.209C371.608 671.745 374.774 676.687 376.11 682.24L446.22 846.24C446.98 849.406 447.013 852.703 446.316 855.884C445.618 859.064 444.209 862.046 442.193 864.603C440.178 867.16 437.609 869.227 434.679 870.649C431.75 872.07 428.536 872.809 425.28 872.81H164.82C159.152 872.812 153.645 870.921 149.174 867.438C144.703 863.954 141.524 859.077 140.14 853.58Z" fill="#FA4A0C"/>
<path d="M333 692.918C329.63 687.848 324.12 685.598 320.68 687.918C317.24 690.238 317.19 696.168 320.56 701.238C321.091 702.01 321.687 702.736 322.34 703.408L297.34 756.178C293.34 753.518 288.97 752.858 285.83 754.958C284.816 755.696 283.976 756.646 283.37 757.743C282.763 758.841 282.405 760.057 282.32 761.308L265.24 755.538L250.31 750.538L245.43 748.938C244.818 747.105 243.968 745.36 242.9 743.748C238.16 736.628 230.42 733.468 225.59 736.678C220.76 739.888 220.71 748.098 225.32 755.168L196.91 793.998C190.71 788.908 183.4 787.338 178.34 790.698C171.46 795.288 171.34 807.238 178.11 817.398C178.38 817.798 178.69 818.138 178.97 818.518L160 844.438L159.83 844.688C159.296 845.409 158.913 846.231 158.707 847.104C158.5 847.977 158.473 848.883 158.628 849.766C158.783 850.65 159.116 851.493 159.607 852.244C160.098 852.995 160.736 853.638 161.484 854.134C162.231 854.63 163.072 854.969 163.955 855.129C164.837 855.29 165.743 855.269 166.618 855.069C167.492 854.868 168.317 854.491 169.041 853.962C169.765 853.432 170.374 852.761 170.83 851.988L187.7 826.598C193.02 829.688 198.7 830.278 202.83 827.518C209.41 823.138 209.72 812.058 203.83 802.218L231.08 761.088C235.08 763.818 239.54 764.518 242.72 762.408C244.498 761.155 245.709 759.25 246.09 757.108L248.09 757.678L263.28 761.828L282.72 767.068C283.311 769.396 284.291 771.607 285.62 773.608C290.35 780.718 298.1 783.888 302.93 780.678C307.76 777.468 307.82 769.098 303.09 761.988C302.392 760.955 301.609 759.982 300.75 759.078L324.54 705.288C327.41 707.288 330.54 707.738 332.85 706.228C336.34 703.998 336.39 697.998 333 692.918Z" fill="white"/>
<path d="M152 695.83H115.15C113.455 695.837 111.795 695.348 110.374 694.424C108.952 693.501 107.832 692.182 107.15 690.63C106.94 690.154 106.828 689.64 106.82 689.12C106.831 688.115 107.236 687.155 107.949 686.448C108.663 685.741 109.626 685.342 110.63 685.34H149.82C148 688.45 149 692.77 152 695.83Z" fill="#D7E8F0"/>
<path d="M175.86 692.05C175.855 693.053 175.453 694.012 174.744 694.721C174.034 695.429 173.073 695.827 172.07 695.83H152C148.94 692.77 148 688.45 149.85 685.34H167.55C169.242 685.331 170.9 685.815 172.32 686.733C173.741 687.651 174.864 688.964 175.55 690.51C175.757 690.997 175.862 691.521 175.86 692.05Z" fill="#FA4A0C"/>
<path d="M166.64 695.829C166.532 696.03 166.412 696.223 166.28 696.409C163.64 699.999 157.94 700.339 153.51 697.099C152.98 696.717 152.481 696.292 152.02 695.829C148.96 692.769 148.02 688.449 149.87 685.339C149.97 685.134 150.091 684.94 150.23 684.759C152.84 681.149 158.54 680.839 162.97 684.049C163.508 684.436 164.014 684.868 164.48 685.339C167.52 688.409 168.46 692.689 166.64 695.829Z" fill="white"/>
<path d="M185.13 715.191C185.122 716.196 184.717 717.157 184.004 717.865C183.29 718.573 182.325 718.971 181.32 718.971H142.63C144.5 715.831 143.57 711.551 140.5 708.481H176.84C178.535 708.474 180.195 708.962 181.616 709.886C183.038 710.81 184.158 712.129 184.84 713.681C185.036 714.159 185.135 714.673 185.13 715.191Z" fill="#FA4A0C"/>
<path d="M142.63 719.002H124.43C122.738 719.011 121.08 718.527 119.66 717.609C118.239 716.691 117.116 715.378 116.43 713.832C116.22 713.348 116.108 712.828 116.1 712.302C116.097 711.804 116.193 711.311 116.382 710.851C116.571 710.39 116.849 709.972 117.201 709.619C117.552 709.267 117.97 708.988 118.429 708.798C118.889 708.608 119.382 708.51 119.88 708.512H140.5C143.57 711.552 144.5 715.832 142.63 719.002Z" fill="#D7E8F0"/>
<path d="M142.63 719.001C142.547 719.209 142.436 719.404 142.3 719.581C139.69 723.201 133.98 723.511 129.55 720.301C129.002 719.907 128.484 719.472 128 719.001C125 715.941 124 711.651 125.85 708.511C125.948 708.309 126.069 708.117 126.21 707.941C128.84 704.341 134.54 704.011 138.98 707.241C139.505 707.627 140 708.051 140.46 708.511C143.57 711.551 144.5 715.831 142.63 719.001Z" fill="white"/>
<path d="M155.52 742H132.36C130.668 742.005 129.011 741.518 127.591 740.598C126.171 739.678 125.048 738.366 124.36 736.82C124.15 736.344 124.038 735.83 124.03 735.31C124.033 734.3 124.435 733.333 125.149 732.619C125.863 731.905 126.83 731.503 127.84 731.5H153.32C151.54 734.59 152.48 738.88 155.52 742Z" fill="#FA4A0C"/>
<path d="M193.06 738.189C193.055 739.19 192.653 740.148 191.942 740.853C191.232 741.558 190.271 741.952 189.27 741.949H155.52C152.52 738.879 151.52 734.589 153.36 731.449H184.77C186.457 731.448 188.108 731.94 189.521 732.863C190.933 733.787 192.045 735.103 192.72 736.649C192.937 737.134 193.053 737.658 193.06 738.189Z" fill="#D7E8F0"/>
<path d="M170.13 742C170.032 742.203 169.911 742.394 169.77 742.57C167.16 746.19 161.46 746.5 157.03 743.29C156.498 742.894 155.994 742.463 155.52 742C152.52 738.93 151.52 734.64 153.36 731.5C153.465 731.301 153.586 731.111 153.72 730.93C156.36 727.34 162.06 727.02 166.49 730.23C167.016 730.618 167.514 731.042 167.98 731.5C171 734.52 172 738.83 170.13 742Z" fill="white"/>
<path d="M305.27 850.34H282.1C280.408 850.345 278.751 849.857 277.331 848.938C275.91 848.018 274.788 846.706 274.1 845.16C273.882 844.686 273.766 844.171 273.76 843.65C273.763 842.64 274.165 841.673 274.879 840.959C275.593 840.245 276.56 839.842 277.57 839.84H303.06C301.29 843 302.23 847.27 305.27 850.34Z" fill="#FA4A0C"/>
<path d="M397.22 846.58C397.219 847.075 397.12 847.565 396.929 848.022C396.739 848.479 396.46 848.894 396.109 849.243C395.758 849.592 395.341 849.868 394.883 850.057C394.426 850.245 393.935 850.341 393.44 850.34H305.27C302.27 847.27 301.27 842.98 303.11 839.84H388.93C390.617 839.839 392.268 840.33 393.681 841.254C395.093 842.178 396.205 843.493 396.88 845.04C397.097 845.525 397.213 846.049 397.22 846.58Z" fill="#D7E8F0"/>
<path d="M319.88 850.34C319.782 850.543 319.661 850.734 319.52 850.91C316.91 854.53 311.21 854.84 306.78 851.63C306.246 851.237 305.742 850.806 305.27 850.34C302.27 847.27 301.27 842.98 303.11 839.84C303.215 839.641 303.336 839.45 303.47 839.27C306.11 835.68 311.81 835.36 316.24 838.57C316.766 838.958 317.264 839.382 317.73 839.84C320.79 842.91 321.73 847.22 319.88 850.34Z" fill="white"/>
</svg>
