<svg width="20" height="20" viewBox="0 0 20 20" fill="none" xmlns="http://www.w3.org/2000/svg">
<path d="M16.25 16.25H3.75V3.75H10V2.5H3.75C3.41858 2.50033 3.10083 2.63213 2.86648 2.86648C2.63213 3.10083 2.50033 3.41858 2.5 3.75V16.25C2.50033 16.5814 2.63213 16.8992 2.86648 17.1335C3.10083 17.3679 3.41858 17.4997 3.75 17.5H16.25C16.5814 17.4997 16.8992 17.3679 17.1335 17.1335C17.3679 16.8992 17.4997 16.5814 17.5 16.25V10H16.25V16.25Z" fill="white"/>
<path d="M16.25 16.25H3.75V3.75H10V2.5H3.75C3.41858 2.50033 3.10083 2.63213 2.86648 2.86648C2.63213 3.10083 2.50033 3.41858 2.5 3.75V16.25C2.50033 16.5814 2.63213 16.8992 2.86648 17.1335C3.10083 17.3679 3.41858 17.4997 3.75 17.5H16.25C16.5814 17.4997 16.8992 17.3679 17.1335 17.1335C17.3679 16.8992 17.4997 16.5814 17.5 16.25V10H16.25V16.25Z" fill="white"/>
<path d="M16.25 3.75V1.25H15V3.75H12.5V5H15V7.5H16.25V5H18.75V3.75H16.25Z" fill="white"/>
</svg>
